<?xml version="1.0" encoding="UTF-8" standalone="no"?>
<!-- Generator: Adobe Illustrator 17.0.1, SVG Export Plug-In . SVG Version: 6.00 Build 0)  -->

<svg
   xmlns:dc="http://purl.org/dc/elements/1.1/"
   xmlns:cc="http://creativecommons.org/ns#"
   xmlns:rdf="http://www.w3.org/1999/02/22-rdf-syntax-ns#"
   xmlns:svg="http://www.w3.org/2000/svg"
   xmlns="http://www.w3.org/2000/svg"
   xmlns:sodipodi="http://sodipodi.sourceforge.net/DTD/sodipodi-0.dtd"
   xmlns:inkscape="http://www.inkscape.org/namespaces/inkscape"
   version="1.1"
   x="0px"
   y="0px"
   width="499.99506"
   height="125.0942"
   viewBox="0 0 499.99506 125.0942"
   enable-background="new 0 0 500 303.055"
   xml:space="preserve"
   id="svg3004"
   inkscape:version="0.48.5 r10040"
   sodipodi:docname="openspace.svg"><metadata
     id="metadata3044"><rdf:RDF><cc:Work
         rdf:about=""><dc:format>image/svg+xml</dc:format><dc:type
           rdf:resource="http://purl.org/dc/dcmitype/StillImage" /></cc:Work></rdf:RDF></metadata><defs
     id="defs3042" /><sodipodi:namedview
     pagecolor="#ffffff"
     bordercolor="#666666"
     borderopacity="1"
     objecttolerance="10"
     gridtolerance="10"
     guidetolerance="10"
     inkscape:pageopacity="0"
     inkscape:pageshadow="2"
     inkscape:window-width="1364"
     inkscape:window-height="747"
     id="namedview3040"
     showgrid="false"
     inkscape:zoom="1.4142136"
     inkscape:cx="311.06691"
     inkscape:cy="82.676421"
     inkscape:window-x="0"
     inkscape:window-y="19"
     inkscape:window-maximized="0"
     inkscape:current-layer="svg3004"
     fit-margin-top="0"
     fit-margin-left="0"
     fit-margin-right="0"
     fit-margin-bottom="0" /><g
     id="Layer_4"
     display="none"
     style="display:none"
     transform="translate(5.8231577e-6,-0.01079757)" /><g
     id="Layer_1"
     transform="translate(5.8231577e-6,-0.01079757)" /><g
     id="Layer_3"
     display="none"
     style="display:none"
     transform="translate(5.8231577e-6,-0.01079757)" /><g
     id="Layer_2"
     transform="matrix(1.077283,0,0,1.0776365,-19.323225,-100.745)"><g
       id="g3010"><g
         id="g3012"><path
           d="m 36.76,124.992 c 11.352,0 18.712,2.165 18.712,24.674 0,21.196 -6.9,23.952 -18.712,23.952 -11.812,0 -18.823,-2.1 -18.823,-23.952 -0.001,-22.509 7.799,-24.674 18.823,-24.674 z m 0,42.784 c 9.548,0 12.675,-2.696 12.675,-18.111 0,-18.351 -4.193,-18.834 -12.675,-18.834 -8.285,0 -12.787,0.394 -12.787,18.834 0,15.841 3.009,18.111 12.787,18.111 z"
           id="path3014"
           inkscape:connector-curvature="0"
           style="fill:#58595b" /><path
           d="m 61.858,138.509 h 4.59 l 1.346,3.773 c 1.834,-1.384 7.904,-4.167 12.277,-4.167 9.259,0 11.454,8.978 11.454,17.652 0,9.24 -1.613,18.112 -11.454,18.112 -2.953,0 -8.364,-0.889 -12.287,-2.527 v 19.72 h -5.926 v -52.563 z m 17.563,29.875 c 3.846,0 6.067,-2.313 6.067,-12.518 0,-8.324 -2.155,-12.077 -6.067,-12.077 -4.711,0 -8.517,1.388 -11.627,2.782 v 20.214 c 3.947,1.113 7.087,1.599 11.627,1.599 z"
           id="path3016"
           inkscape:connector-curvature="0"
           style="fill:#58595b" /><path
           d="m 112.165,138.246 c 8.715,0 13.715,0.886 13.715,12.435 0,5.369 -2.888,8.203 -9.187,8.203 h -13.715 c 0,7.682 1.746,9.263 6.825,9.263 5.84,0 10.499,0.055 15.421,-0.667 v 4.364 c -5.208,1.599 -11.352,1.838 -16.799,1.838 -8.859,0 -11.483,-4.502 -11.483,-17.915 -10e-4,-15.394 4.382,-17.521 15.223,-17.521 z m 3.878,15.357 c 2.622,0 3.8,-1.021 3.8,-3.048 0,-6.211 -1.125,-6.861 -7.484,-6.861 -6.716,0 -9.4,0.125 -9.381,9.909 h 13.065 z"
           id="path3018"
           inkscape:connector-curvature="0"
           style="fill:#58595b" /><path
           d="m 132.01,138.509 h 4.495 l 1.542,3.97 c 3.728,-2.257 7.054,-4.561 12.37,-4.561 7.271,0 10.663,5.441 10.663,11.452 v 23.984 h -6.037 V 149.33 c 0,-4.095 -2.284,-5.867 -5.345,-5.867 -4.827,0 -7.238,1.214 -11.651,3.543 v 26.347 h -6.038 v -34.844 z"
           id="path3020"
           inkscape:connector-curvature="0"
           style="fill:#58595b" /></g><g
         id="g3022"><path
           d="m 313.878,136.837 c 0,-9.515 5.643,-11.849 12.993,-11.877 4.413,-0.04 14.147,1.118 16.996,1.663 v 4.833 c -4.2,-0.292 -15.658,-0.656 -16.308,-0.656 -4.436,-0.167 -7.645,0.242 -7.645,6.235 v 3.789 c 0,5.381 2.402,5.939 6.28,5.939 h 8.846 c 8.914,0 10.541,6.319 10.541,11.68 v 4.118 c 0,9.75 -6.768,11.352 -13.265,11.352 -4.573,0 -13.436,-0.949 -16.985,-1.729 v -4.834 c 2.624,0.263 10.391,0.722 16.493,0.722 2.71,0 7.721,-0.219 7.721,-5.424 v -3.95 c 0,-3.465 -1.038,-5.9 -5.095,-5.9 h -8.695 c -10.795,0 -11.877,-6.532 -11.877,-11.68 v -4.281 z"
           id="path3024"
           inkscape:connector-curvature="0"
           style="fill:#58595b" /><path
           d="m 351.958,138.542 h 4.59 l 1.346,3.773 c 1.834,-1.384 7.904,-4.167 12.278,-4.167 9.259,0 11.454,8.978 11.454,17.652 0,9.24 -1.613,18.112 -11.454,18.112 -2.953,0 -8.364,-0.889 -12.287,-2.527 v 19.72 h -5.926 v -52.563 z m 17.564,29.875 c 3.846,0 6.067,-2.313 6.067,-12.518 0,-8.324 -2.155,-12.077 -6.067,-12.077 -4.711,0 -8.517,1.388 -11.627,2.782 v 20.214 c 3.946,1.113 7.086,1.599 11.627,1.599 z"
           id="path3026"
           inkscape:connector-curvature="0"
           style="fill:#58595b" /><path
           d="m 387.08,161.146 c 0,-5.2 3.134,-8.954 9.131,-8.954 0,0 13.387,0.066 13.387,0 0,0 0.066,-3.74 0,-3.806 0,-3.925 -2.002,-5.086 -5.184,-5.086 -4.262,0 -10.797,0.387 -16.208,0.778 v -4.125 c 4.639,-1.441 10.194,-2.011 16.691,-2.068 6.007,-0.055 10.739,2.799 10.739,10.402 v 25.1 h -4.604 l -1.433,-4.101 c -0.2,0.206 -7.691,4.525 -13.485,4.495 -5.311,-0.05 -9.033,-3.537 -9.033,-8.829 v -3.806 z m 9.742,7.09 c 4.866,0 12.776,-3.17 12.776,-3.17 V 156.5 l -12.895,0.942 c -2.713,0.252 -3.586,2.126 -3.586,4.068 v 2.848 c 10e-4,3.081 1.621,3.878 3.705,3.878 z"
           id="path3028"
           inkscape:connector-curvature="0"
           style="fill:#58595b" /><path
           d="m 433.241,138.214 c 3.412,0 10.349,0.676 15.257,1.805 v 4.134 c 0,0 -8.343,-0.394 -14.184,-0.394 -4.016,0 -6.519,0.594 -6.519,12.415 0,9.736 1.794,11.996 6.519,11.996 6.038,0 14.644,-0.692 14.644,-0.692 v 4.246 c -5.256,1.804 -10.269,1.926 -15.716,1.991 -6.497,0 -11.483,-2.74 -11.483,-17.784 -0.002,-14.987 4.789,-17.717 11.482,-17.717 z"
           id="path3030"
           inkscape:connector-curvature="0"
           style="fill:#58595b" /><path
           d="m 468.348,138.28 c 8.715,0 13.715,0.886 13.715,12.435 0,5.369 -2.888,8.203 -9.187,8.203 h -13.715 c 0,7.682 1.746,9.263 6.825,9.263 5.84,0 10.499,0.055 15.421,-0.667 v 4.364 c -5.208,1.599 -11.352,1.838 -16.799,1.838 -8.859,0 -11.483,-4.501 -11.483,-17.915 0,-15.394 4.383,-17.521 15.223,-17.521 z m 3.878,15.356 c 2.622,0 3.8,-1.021 3.8,-3.048 0,-6.211 -1.125,-6.861 -7.484,-6.861 -6.716,0 -9.4,0.125 -9.381,9.909 h 13.065 z"
           id="path3032"
           inkscape:connector-curvature="0"
           style="fill:#58595b" /></g><g
         id="g3034"><path
           d="m 241.349,93.487 c -32.055,0 -58.041,25.986 -58.041,58.041 0,32.055 25.986,58.041 58.041,58.041 32.055,0 58.041,-25.986 58.041,-58.041 0,-32.056 -25.986,-58.041 -58.041,-58.041 z m 0,108.854 c -28.064,0 -50.814,-22.75 -50.814,-50.814 0,-28.064 22.75,-50.814 50.814,-50.814 28.064,0 50.814,22.75 50.814,50.814 0,28.064 -22.75,50.814 -50.814,50.814 z"
           id="path3036"
           inkscape:connector-curvature="0"
           style="fill:#d1d3d4" /><path
           d="m 278.523,177.623 c -1.537,0 -3.002,0.311 -4.335,0.872 L 214.42,118.727 c 0.026,-0.06 0.055,-0.119 0.08,-0.18 h 53.698 c 1.685,4.043 5.672,6.886 10.325,6.886 6.177,0 11.184,-5.007 11.184,-11.184 0,-6.177 -5.007,-11.184 -11.184,-11.184 -4.653,0 -8.64,2.843 -10.325,6.886 H 214.5 c -1.685,-4.043 -5.672,-6.886 -10.325,-6.886 -6.177,0 -11.184,5.007 -11.184,11.184 0,6.177 5.007,11.184 11.184,11.184 1.424,0 2.781,-0.277 4.034,-0.762 l 59.839,59.839 H 214.5 c -1.685,-4.043 -5.672,-6.886 -10.325,-6.886 -6.177,0 -11.184,5.007 -11.184,11.184 0,6.177 5.007,11.184 11.184,11.184 4.653,0 8.64,-2.843 10.325,-6.886 h 53.698 c 1.685,4.043 5.672,6.886 10.325,6.886 6.177,0 11.184,-5.007 11.184,-11.184 0,-6.177 -5.007,-11.185 -11.184,-11.185 z"
           id="path3038"
           inkscape:connector-curvature="0"
           style="fill:#f26522" /></g></g></g></svg>